<?xml version="1.0" encoding="iso-8859-1"?>
<!-- Generator: Adobe Illustrator 19.0.0, SVG Export Plug-In . SVG Version: 6.00 Build 0)  -->
<svg version="1.1" id="Capa_1" xmlns="http://www.w3.org/2000/svg" xmlns:xlink="http://www.w3.org/1999/xlink" x="0px" y="0px"
	 viewBox="0 0 512 512" style="enable-background:new 0 0 512 512;" xml:space="preserve">
<path style="fill:#DE4C3C;" d="M329.763,381.831h78.102c19.17,0,34.712-15.542,34.712-34.712l0,0
	c0-19.17-15.542-34.712-34.712-34.712h-34.712v-34.712h34.712c38.339,0,69.424,31.084,69.424,69.424l0,0
	c0,38.339-31.085,69.424-69.424,69.424h-78.102V381.831z"/>
<g>
	<path style="fill:#C94536;" d="M373.153,312.407h33.844c0.538-5.649,0.868-11.42,0.868-17.356v-17.356h-34.712V312.407z"/>
	<path style="fill:#C94536;" d="M329.763,381.831v34.712h34.634c8.4-10.873,15.794-22.493,22.077-34.712H329.763z"/>
</g>
<path style="fill:#DE4C3C;" d="M86.78,512c-28.759,0-52.068-23.309-52.068-52.068l0,0h381.831c0,28.759-23.309,52.068-52.068,52.068
	l0,0H86.78z"/>
<path id="SVGCleanerId_0" style="fill:#DE4C3C;" d="M147.525,459.724c0,0-86.78-60.538-86.78-164.673v-34.712h329.763v34.712
	c0,104.136-86.78,164.673-86.78,164.673L147.525,459.724z"/>
<g>
	<path id="SVGCleanerId_0_1_" style="fill:#DE4C3C;" d="M147.525,459.724c0,0-86.78-60.538-86.78-164.673v-34.712h329.763v34.712
		c0,104.136-86.78,164.673-86.78,164.673L147.525,459.724z"/>
</g>
<path style="fill:#E5E5E5;" d="M390.508,234.305v-60.746c0-28.759-23.309-52.068-52.068-52.068h-34.712
	c-9.589,0-17.356-7.767-17.356-17.356l0,0c0-9.589,7.767-17.356,17.356-17.356H425.22c28.759,0,52.068-23.309,52.068-52.068V0
	H312.407v17.356c0,19.17-15.542,34.712-34.712,34.712h-91.119c-26.364,0-47.729,21.365-47.729,47.729l0,0
	c0,26.364,21.365,47.729,47.729,47.729h4.339c9.589,0,17.356,7.767,17.356,17.356l0,0c0,9.589-7.767,17.356-17.356,17.356h-78.102
	c-28.759,0-52.068,23.309-52.068,52.068H390.508z"/>
<path style="fill:#C94536;" d="M118.541,433.43c8.799,9.667,18.501,18.475,28.984,26.294h156.203c0,0,86.78-60.537,86.78-164.673
	v-34.712h-16.974C301.282,364.093,176.753,414.599,118.541,433.43z"/>
<g>
</g>
<g>
</g>
<g>
</g>
<g>
</g>
<g>
</g>
<g>
</g>
<g>
</g>
<g>
</g>
<g>
</g>
<g>
</g>
<g>
</g>
<g>
</g>
<g>
</g>
<g>
</g>
<g>
</g>
</svg>
